<svg id="Layer_1" data-name="Layer 1" xmlns="http://www.w3.org/2000/svg" viewBox="0 0 290.98 120.1"><defs><style>.cls-1{fill:#fff;stroke:#fff;stroke-miterlimit:10;}</style></defs><title>logo</title><path class="cls-1" d="M109.12,131.2c-.29-1.77-1.5-1.12-2.14-.57a25.38,25.38,0,0,0-4.77,4.7,104.53,104.53,0,0,1-22.13,24c-8.58,6.68-18.58,9.79-29.59,12.16.66-4.48,1.13-8.76,2-13,1.88-9.49,6.9-17.31,13.67-24,5.07-5,10.44-9.72,15.85-14.72a17.82,17.82,0,0,1-5.59-10.37l-10.46,4.8-.35-.43,3.85-9.55C61.26,111.64,53,118.72,42,122.07a36.37,36.37,0,0,1,6.47-19A53,53,0,0,1,64.11,88.64,114,114,0,0,1,87.25,78.13a5.8,5.8,0,0,1,1.15,0,13.09,13.09,0,0,0-7,8c-.22.65-1.65,1.13-2.58,1.26a34.77,34.77,0,0,0-18,7.88,25.91,25.91,0,0,0-7.4,9.57,17.64,17.64,0,0,0-1,3.47c-.34,1.68.4,2.63,2.11,2,2.79-1,5.91-1.72,8.14-3.5a53.32,53.32,0,0,0,9.68-9.88c2.08-2.82,4.59-3.7,7.85-4.33-1.1,2.37-2.12,4.53-3.11,6.7a6.21,6.21,0,0,0-.61,1.82,9.82,9.82,0,0,0,.17,2,4.71,4.71,0,0,0,1.76-.42c2.78-2.11,5.63-4.15,8.19-6.5s4.8-5.06,7.23-7.66l-5.85-7.56C93.16,76.7,99.19,75,105.54,74a41.48,41.48,0,0,0-3.68,2.3,16.13,16.13,0,0,0-3.07,2.95c-2,2.61-1.63,5,.9,7.13a26.69,26.69,0,0,0,2.84,1.9c.89.56,1.81,1.07,2.75,1.63L101.14,99l.45.46a6.28,6.28,0,0,0,2.27-.67c3-2.49,6.46-4.69,8.66-7.78,1.7-2.38,1.83-5.9,2.45-9,.05-.26-1.53-1.32-2.19-1.19-2.85.56-5.65,1.4-8.45,2.18-.79.22-1.55.59-2.37.75A50.9,50.9,0,0,1,130.87,70a6.37,6.37,0,0,1-.84.62c-.32.15-.67.22-1,.36a10.31,10.31,0,0,0-6.75,8.12c-1.37,6.91-3.17,13.73-4.78,20.55A9.21,9.21,0,0,0,125.31,94c3.79-9.05,11.16-14.41,19.46-18.76,8.64-4.52,18-6.25,27.68-6.64-3.81,1.22-7.64,2.4-8.92,6.95a28.94,28.94,0,0,0-15.42,2c-5.77,2.22-10.51,5.78-13.51,11.28C134,90,134,91.61,133.68,93a18.24,18.24,0,0,0,4.13.21c6.21-1.08,10.78-5,15.12-9.2,3.51-3.41,3.46-3.46,8.66-4.14L158,85.57l13.33-2.82,1.35-6.83.54.11c-.38,1.7-.8,3.39-1.11,5.1-.27,1.53.31,2.24,2,2.49a33.06,33.06,0,0,1,5.38,1.7l-6.68-1.1.71,2.19c-.87-1.6-2.11-1.65-3.76-1.22a31.86,31.86,0,0,0-12.67,6.44,4.12,4.12,0,0,0-1.29,3.27A3.57,3.57,0,0,0,158.35,97a11.84,11.84,0,0,0,5.26-.25c10-3.17,19.7-2.1,29,2.14,7,3.18,13.82,6.46,21.24,8.63s12.8,7.32,17.69,13l4.84,5.67A35,35,0,0,0,247.47,118c4.16-4.7,8-9.65,12.17-14.37a83,83,0,0,1,7.73-8c6.29-5.5,13.85-7.06,22-6.37a21.35,21.35,0,0,1,2.18.41l0,.65a14.13,14.13,0,0,1-1.68,0c-11.18-1.34-20.12,2.79-27.26,11.21-4.57,5.39-8.81,11.08-13.64,16.22-3.38,3.6-7.49,6.5-11.38,9.79,8.23,12.05,18.45,21.46,35.39,18.64-3.54,2.71-14.94,1-21.29-2.79-6.51-3.93-10.88-10-15.58-15.94-7.43,3.56-15.26,4.18-23.26,3.7a79.69,79.69,0,0,1-21.32-4.38,2.82,2.82,0,0,0-2.27.07,60.6,60.6,0,0,1-30.84,14.58c.86,2.68,2.19,5.29,2.48,8,.6,5.76-2.6,9.89-6.93,13.19a33.75,33.75,0,0,1-17,6.41c-9,1-17.72-.16-25.43-5.27-2.4-1.59-4.19-4.09-6.26-6.17,2.35,2,4.48,4.45,7.1,6,8.91,5.42,18.62,6.3,28.66,4.07,6.31-1.4,12.08-3.92,16.29-9.09a12.58,12.58,0,0,0,1.85-13.81c-1-2.24-2.19-3.93-5.11-3.2a9.5,9.5,0,0,1-3.19-.15c-5.38-.59-7.42-2.46-8.35-7.82-9.55-1.36-18.38.87-26.76,5.44,8.26-5.42,17.37-7.15,27.14-6a17.75,17.75,0,0,1,4.89-9.52c2.49-2.59,5.27-4.92,7.93-7.38l-.68-.88c.83,0,1.81.39,2.45.06,3.24-1.63,6.39-3.43,9.67-5.22-2.09-3.67-4-7.53-1.92-12.19-4.32,1.68-8.41,3.3-12.53,4.85s-4.71,2.64-2.42,6.72a31.18,31.18,0,0,0,3.26,4.19c.48.59,1,1.11,1.55,1.66l-5.18-4.14c-.5,2.53-.94,5.26-3.48,6.92.43-.65.87-1.3,1.28-2,2.66-4.29,1.74-8.36-2.85-10.49a22.37,22.37,0,0,0-8.19-2c-7-.32-13.69,1.49-20.27,3.77A3.58,3.58,0,0,0,114.1,110c-2.42,6-5,11.93-7.52,17.88-.21.49-.44,1-.66,1.44l.4.49a12.35,12.35,0,0,0,2.12-1.24q10.16-9,20.26-18.1c.58-.52,1.24-1,1.86-1.44.17.52.1.72,0,.85q-8.41,8.07-16.83,16.11a4.68,4.68,0,0,1-1.09.59l.36-.73-.24-.22-4.43,3.92.4.56a9.59,9.59,0,0,0,1.72-1.08c.82-.78,1.52-1.68,2.27-2.53l-2,3.74c4.39-.35,8.47-.33,12.41-1.07,4.44-.84,8.75-2.37,13.12-3.59-7.74,3.93-16,5.1-24.6,5A9.89,9.89,0,0,0,109.12,131.2Zm-18.6-5.73,9.26,2.89,6.9-16.16-.64-.58L88.15,123.28l1.59,1.58c-.91-.05-2.17-.52-2.68-.1-5.3,4.47-10.35,9.23-13.51,15.55A14.86,14.86,0,0,0,72.28,145,2.4,2.4,0,0,0,75,148a25.71,25.71,0,0,0,6.2-1.3c2.4-.83,4.66-2.05,7-3.11-3.45,1.58-6.77,3.63-10.39,4.62-5.35,1.47-8.12-1.4-6.51-6.77,1.17-3.9,3.32-7.5,5.09-11.21a13.42,13.42,0,0,1,1.36-1.92l1.2-1.68c-11.57,10.09-21.46,21.16-22.6,37.61a10.45,10.45,0,0,0,1.3.06,44.7,44.7,0,0,0,4.89-.54c12.59-2.65,20.83-11.22,28.21-20.92l-.52-.42c4.32-3.59,6.19-8.8,9-13.31ZM159.85,118c-1.17-.19-2.71-.95-3.46-.47a29.59,29.59,0,0,0-10.58,10.69,36.07,36.07,0,0,0-1.79,4.43c4,2.19,7.45,4.17,11,6.05a5.23,5.23,0,0,0,2.85.79c10.89-1.48,20.4-6.14,29-12.82a10.68,10.68,0,0,1,1.46-.81c-3.67-2-6.77-3.76-9.91-5.45a3.33,3.33,0,0,0-1.6-.34c-2.56.07-5.17.57-7.67.22a81.78,81.78,0,0,1-9.4-2.37c.82.19,1.64.33,2.44.57a29.32,29.32,0,0,0,14.26,1.06c-2.72-2.62-5.36-5.18-8-7.71-.26-.24-.82-.48-1.07-.36-3.21,1.54-6.39,3.14-9.76,4.83Zm32.75-6.26,2.12-6.26A77,77,0,0,0,168.48,111c3.37,2.82,6.27,5.31,9.27,7.68a2.67,2.67,0,0,0,2.15.25c2.62-.86,5.18-1.88,7.76-2.85l-8.08,4c2.63,1.32,5.36,2.65,8.05,4.07a1.92,1.92,0,0,0,2.61-.46A42.45,42.45,0,0,0,200.39,109,6.5,6.5,0,0,1,201,108a1.15,1.15,0,0,1,.3,1.09c-2,6.31-5.85,11.49-10.48,16.2,12.28,5.37,33.67,7.44,44.27,1.34-6-10-21.17-20.59-28.75-20.08,9.87,9.24,15.4,17,15,21.4a4.91,4.91,0,0,1-.68-.91c-3.12-8.17-8.94-14.08-15.68-19.37-3.17-2.49-6.51-2.32-9.4-2.14ZM82.48,119.12c8.72-4.92,17.22-9.71,25.7-14.52a2.53,2.53,0,0,0,1.16-1.14c.9-2.68,1.69-5.4,2.52-8.1a68.75,68.75,0,0,1-19.07,12.91c.27-.91.41-1.6.67-2.23C94.7,103,96,100,97.23,97c1.6-3.81,1-5.72-2.14-7.33-4.77,5.23-9.5,10.37-14.16,15.56-1.71,1.91-2.84,4.07-2.23,6.82A14.1,14.1,0,0,0,82.48,119.12Zm111.59-14.68c-.17-2.11-.73-3.65-2.79-4.23-3.35-.95-6.65-2.14-10.05-2.83-4.12-.84-8.33-1.35-12.49-.09-2.7.82-3.89,2.36-3.35,5.11a32.68,32.68,0,0,0,2.39,6.54,1.81,1.81,0,0,0,1.66.56A82.55,82.55,0,0,1,194.07,104.43ZM149.73,91.29l-20.55,10.38c6.59-.11,13,.64,17.91,4.68Zm-5.65,42.25c-.53,5.08,5.1,7.78,11,5.38Zm-30.5-29.85.14.34a44.59,44.59,0,0,1,6.62-1.34c2.56-.15,2.87-1.65,3.06-3.91Zm80.47-2.29c.87,3.27,1.94,3.77,5.25,2.64Z" transform="translate(-1.08 -52.01)"/><path class="cls-1" d="M124.7,53.67c-3.3,1.19-6.3,2.12-9.17,3.35a20.25,20.25,0,0,0-9,7.08,2.86,2.86,0,0,1-2.09.93c-4.64,0-9.29,0-13.92-.29-1.89-.1-3.28.42-4.1,2-1.84,3.54-5,4.78-8.62,5.81-14.52,4.11-27.2,11.4-37.43,22.63-6.37,7-10.87,15-12.27,24.51-.62,4.2.79,5.64,5,5.51.57,0,1.13-.06,2.34-.13a58.23,58.23,0,0,1-21.07,6.45c1.86-5.11,3.39-10,5.39-14.65,5.91-13.75,15.22-24.93,26.93-34.08C53.92,77.21,61.36,72,68.67,66.68c.1-.07.13-.24.39-.73-4,.64-7.87,1.14-11.65,1.86C46,70,34.66,72.68,24,77.55a24.88,24.88,0,0,1-4.13,1.06A50.91,50.91,0,0,0,4.25,85.95a2.91,2.91,0,0,1-1.8.65c2.39-1.94,4.74-3.93,7.19-5.8C29.46,65.64,51.91,57,76.58,54a225.35,225.35,0,0,1,47-.45C123.89,53.54,124.17,53.59,124.7,53.67Z" transform="translate(-1.08 -52.01)"/><path class="cls-1" d="M151.59,62.84c-13.75-2.27-27.4-3.49-40.55,3.8a34.28,34.28,0,0,1,3.8-4,34.44,34.44,0,0,1,14.4-6.19,11.24,11.24,0,0,1,5,.59c5.85,1.66,11.66,3.48,17.49,5.24Z" transform="translate(-1.08 -52.01)"/><path class="cls-1" d="M202.56,75.25c.06-1.14-.57-1.41-1.44-1a44.2,44.2,0,0,0-6.82,3.83c-1,.74-1.13,2.52-1.65,3.83l3.52.33c-1.24.91-2.82,1.45-3.7.07-.52-.81-.18-2.62.41-3.6,1.65-2.75,4.49-4,7.45-4.89,2.74-.82,2.82-.94,1.87-3.79a3.38,3.38,0,0,1-.09-.63l.1-.09c.38,1,.71,1.94,1.14,2.87a8.64,8.64,0,0,0,.88,1.3Z" transform="translate(-1.08 -52.01)"/><path class="cls-1" d="M107.44,133.47c-.63,1.32-1.22,2.66-1.9,4-2.53,4.84-3.83,9.88-2.41,15.32a28.74,28.74,0,0,0,1.53,3.71c-2.42-1.92-2.62-4.76-2.69-7.44C101.83,143.19,104,138.09,107.44,133.47Z" transform="translate(-1.08 -52.01)"/><path class="cls-1" d="M202.12,69.45c-3.88-4.33-8.77-4.64-13.92-3.24-2.77.75-5.41,2-7.87,2.9,3.8-3.51,13.05-5.3,17.95-3,1.5.69,2.64,2.18,3.94,3.3Z" transform="translate(-1.08 -52.01)"/></svg>